<?xml version="1.0" encoding="UTF-8" standalone="no"?>
<svg width="43px" height="73px" viewBox="0 0 43 73" version="1.1" xmlns="http://www.w3.org/2000/svg" xmlns:xlink="http://www.w3.org/1999/xlink" xmlns:sketch="http://www.bohemiancoding.com/sketch/ns">
    <!-- Generator: Sketch 3.2.2 (9983) - http://www.bohemiancoding.com/sketch -->
    <title>Line 3</title>
    <desc>Created with Sketch.</desc>
    <defs></defs>
    <g id="Page-1" stroke="none" stroke-width="1" fill="none" fill-rule="evenodd" sketch:type="MSPage">
        <path d="M21.5,1.53422455 L21.5,1.53422455 L35.5,25.5 L21.5,1.53422455 L21.5,1.5 L21.5,1.53422455 L21.5,1.53422455 L21.5,1.53422455 L21.5,1.53422455 L7.5,25.5 L21.5,1.53422455 L21.5,1.53422455 Z M21.5,1.53422455 L21.5,1.53422455 L21.5,1.53422455 L21.5,1.53422455 L21.5,1.53422455 L21.5,31.0677185 L21.5,1.53422455 L21.5,1.53422455 L21.5,1.53422455 Z M21.5,1.53422455 L21.5199928,1.5 L21.5,1.53422455 L21.5,1.53422455 Z M21.5,71 C32.2695526,71 41,62.2695526 41,51.5 C41,40.7304474 32.2695526,32 21.5,32 C10.7304474,32 2,40.7304474 2,51.5 C2,62.2695526 10.7304474,71 21.5,71 Z" id="Line-3" stroke="#FFFFFF" stroke-width="3" stroke-linecap="round" stroke-linejoin="bevel" sketch:type="MSShapeGroup"></path>
    </g>
</svg>